<svg width="120" height="62" viewBox="0 0 120 62" fill="none" xmlns="http://www.w3.org/2000/svg">
<path d="M118.113 52.313C117.837 52.0687 117.56 51.8344 117.294 51.5903C86.951 24.8217 48.9885 6.43715 6.96941 0.191811C6.82989 0.159666 6.70052 0.117677 6.56069 0.10553C6.4707 0.10415 6.39071 0.102922 6.30072 0.101542C6.17073 0.0995473 6.0409 0.0875542 5.90092 0.0854065C2.89051 0.0892247 0.433206 2.50181 0.386876 5.52146C0.344535 8.28113 2.33978 10.562 4.96303 11.0223C5.12255 11.0548 5.28192 11.0972 5.45174 11.1098C5.48174 11.1103 5.52173 11.1109 5.55173 11.1113C45.2851 17.0616 81.1927 34.4445 109.908 59.748C110.203 60.0725 110.529 60.3576 110.895 60.6132C111.677 61.1553 112.591 61.5194 113.6 61.6048C113.75 61.6071 113.89 61.6193 114.039 61.6316C117.07 61.6481 119.557 59.2159 119.604 56.1663C119.627 54.6765 119.057 53.3276 118.123 52.3231L118.113 52.313Z" fill="#672BB5"/>
</svg>
