<svg width="22" height="24" viewBox="0 0 22 24" fill="none" xmlns="http://www.w3.org/2000/svg">
<path d="M14.0001 22.2661V13.7328C14.0001 13.4499 13.8877 13.1786 13.6877 12.9785C13.4876 12.7785 13.2163 12.6661 12.9334 12.6661H8.66674C8.38384 12.6661 8.11253 12.7785 7.91249 12.9785C7.71245 13.1786 7.60007 13.4499 7.60007 13.7328V22.2661M1.20007 10.5328C1.2 10.2225 1.26763 9.91584 1.39825 9.63434C1.52886 9.35284 1.71932 9.10323 1.95634 8.90291L9.42301 2.50398C9.80806 2.17855 10.2959 2 10.8001 2C11.3042 2 11.7921 2.17855 12.1771 2.50398L19.6438 8.90291C19.8808 9.10323 20.0713 9.35284 20.2019 9.63434C20.3325 9.91584 20.4001 10.2225 20.4001 10.5328V20.1328C20.4001 20.6986 20.1753 21.2412 19.7752 21.6413C19.3752 22.0414 18.8325 22.2661 18.2667 22.2661H3.33341C2.76761 22.2661 2.22499 22.0414 1.82491 21.6413C1.42483 21.2412 1.20007 20.6986 1.20007 20.1328V10.5328Z" stroke="white" stroke-width="2.13333" stroke-linecap="round" stroke-linejoin="round"/>
</svg>
