<svg width="36" height="36" viewBox="0 0 36 36" fill="none" xmlns="http://www.w3.org/2000/svg">
<path d="M29.25 33.75C31.7353 33.75 33.75 31.7353 33.75 29.25C33.75 26.7647 31.7353 24.75 29.25 24.75C26.7647 24.75 24.75 26.7647 24.75 29.25C24.75 31.7353 26.7647 33.75 29.25 33.75Z" fill="#672BB5"/>
<path d="M11.25 14.625H13.5V16.875H11.25V14.625ZM11.25 20.25H13.5V22.5H11.25V20.25ZM11.25 25.875H13.5V28.125H11.25V25.875ZM15.75 14.625H24.75V16.875H15.75V14.625ZM15.75 20.25H24.75V22.5H15.75V20.25ZM15.75 25.875H20.25V28.125H15.75V25.875Z" fill="#672BB5"/>
<path d="M7.875 31.5V7.875H11.25V11.25H24.75V7.875H28.125V20.25H30.375V7.875C30.375 7.27826 30.1379 6.70597 29.716 6.28401C29.294 5.86205 28.7217 5.625 28.125 5.625H24.75V4.5C24.75 3.90326 24.5129 3.33097 24.091 2.90901C23.669 2.48705 23.0967 2.25 22.5 2.25H13.5C12.9033 2.25 12.331 2.48705 11.909 2.90901C11.4871 3.33097 11.25 3.90326 11.25 4.5V5.625H7.875C7.27826 5.625 6.70597 5.86205 6.28401 6.28401C5.86205 6.70597 5.625 7.27826 5.625 7.875V31.5C5.625 32.0967 5.86205 32.669 6.28401 33.091C6.70597 33.5129 7.27826 33.75 7.875 33.75H20.25V31.5H7.875ZM13.5 4.5H22.5V9H13.5V4.5Z" fill="#672BB5"/>
</svg>
