<svg width="22" height="25" viewBox="0 0 22 25" fill="none" xmlns="http://www.w3.org/2000/svg">
<path d="M11.5285 2H11.0591C10.4933 2 9.95072 2.22476 9.55064 2.62484C9.15056 3.02492 8.9258 3.56754 8.9258 4.13333V4.32533C8.92542 4.69944 8.82666 5.06687 8.63944 5.39076C8.45222 5.71465 8.18312 5.98361 7.85913 6.17067L7.40047 6.43733C7.07616 6.62457 6.70828 6.72315 6.3338 6.72315C5.95932 6.72315 5.59144 6.62457 5.26713 6.43733L5.10713 6.352C4.6176 6.06961 4.03603 5.99301 3.49007 6.139C2.94411 6.28498 2.47839 6.64164 2.19513 7.13067L1.96047 7.536C1.67808 8.02553 1.60147 8.60711 1.74746 9.15307C1.89345 9.69902 2.25011 10.1647 2.73913 10.448L2.89913 10.5547C3.22156 10.7408 3.48966 11.0081 3.67679 11.33C3.86392 11.6518 3.96355 12.017 3.9658 12.3893V12.9333C3.96729 13.3092 3.86943 13.6789 3.68211 14.0048C3.4948 14.3307 3.22469 14.6014 2.89913 14.7893L2.73913 14.8853C2.25011 15.1686 1.89345 15.6343 1.74746 16.1803C1.60147 16.7262 1.67808 17.3078 1.96047 17.7973L2.19513 18.2027C2.47839 18.6917 2.94411 19.0484 3.49007 19.1943C4.03603 19.3403 4.6176 19.2637 5.10713 18.9813L5.26713 18.896C5.59144 18.7088 5.95932 18.6102 6.3338 18.6102C6.70828 18.6102 7.07616 18.7088 7.40047 18.896L7.85913 19.1627C8.18312 19.3497 8.45222 19.6187 8.63944 19.9426C8.82666 20.2665 8.92542 20.6339 8.9258 21.008V21.2C8.9258 21.7658 9.15056 22.3084 9.55064 22.7085C9.95072 23.1086 10.4933 23.3333 11.0591 23.3333H11.5285C12.0943 23.3333 12.6369 23.1086 13.037 22.7085C13.437 22.3084 13.6618 21.7658 13.6618 21.2V21.008C13.6622 20.6339 13.7609 20.2665 13.9482 19.9426C14.1354 19.6187 14.4045 19.3497 14.7285 19.1627L15.1871 18.896C15.5114 18.7088 15.8793 18.6102 16.2538 18.6102C16.6283 18.6102 16.9962 18.7088 17.3205 18.896L17.4805 18.9813C17.97 19.2637 18.5516 19.3403 19.0975 19.1943C19.6435 19.0484 20.1092 18.6917 20.3925 18.2027L20.6271 17.7867C20.9095 17.2971 20.9861 16.7156 20.8401 16.1696C20.6942 15.6236 20.3375 15.1579 19.8485 14.8747L19.6885 14.7893C19.3629 14.6014 19.0928 14.3307 18.9055 14.0048C18.7182 13.6789 18.6203 13.3092 18.6218 12.9333V12.4C18.6203 12.0241 18.7182 11.6545 18.9055 11.3285C19.0928 11.0026 19.3629 10.732 19.6885 10.544L19.8485 10.448C20.3375 10.1647 20.6942 9.69902 20.8401 9.15307C20.9861 8.60711 20.9095 8.02553 20.6271 7.536L20.3925 7.13067C20.1092 6.64164 19.6435 6.28498 19.0975 6.139C18.5516 5.99301 17.97 6.06961 17.4805 6.352L17.3205 6.43733C16.9962 6.62457 16.6283 6.72315 16.2538 6.72315C15.8793 6.72315 15.5114 6.62457 15.1871 6.43733L14.7285 6.17067C14.4045 5.98361 14.1354 5.71465 13.9482 5.39076C13.7609 5.06687 13.6622 4.69944 13.6618 4.32533V4.13333C13.6618 3.56754 13.437 3.02492 13.037 2.62484C12.6369 2.22476 12.0943 2 11.5285 2Z" stroke="white" stroke-width="2.13333" stroke-linecap="round" stroke-linejoin="round"/>
<path d="M11.2938 15.8667C13.0611 15.8667 14.4938 14.434 14.4938 12.6667C14.4938 10.8994 13.0611 9.46667 11.2938 9.46667C9.52649 9.46667 8.0938 10.8994 8.0938 12.6667C8.0938 14.434 9.52649 15.8667 11.2938 15.8667Z" stroke="white" stroke-width="2.13333" stroke-linecap="round" stroke-linejoin="round"/>
</svg>
