<svg width="18" height="10" viewBox="0 0 18 10" fill="none" xmlns="http://www.w3.org/2000/svg">
<path d="M1.52325 0.272531C1.43737 0.191382 1.33636 0.127943 1.22597 0.0858335C1.11558 0.043724 0.997973 0.0237703 0.87987 0.027111C0.761768 0.0304517 0.645479 0.0570221 0.537645 0.105305C0.429812 0.153587 0.332543 0.222636 0.251395 0.30851C0.170246 0.394383 0.106806 0.4954 0.0646969 0.605791C0.0225876 0.716183 0.0026337 0.833786 0.00597465 0.951888C0.00931561 1.06999 0.0358859 1.18628 0.0841684 1.29411C0.132451 1.40195 0.2015 1.49922 0.287374 1.58036L8.38262 9.22588C8.54963 9.38377 8.77073 9.47174 9.00056 9.47174C9.23039 9.47174 9.45149 9.38377 9.6185 9.22588L17.7146 1.58036C17.8024 1.49975 17.8733 1.4025 17.9231 1.29427C17.973 1.18604 18.0008 1.06899 18.005 0.9499C18.0093 0.830815 17.9898 0.712075 17.9478 0.60058C17.9057 0.489084 17.8419 0.387055 17.7601 0.300417C17.6783 0.213779 17.5801 0.144261 17.4712 0.0958988C17.3623 0.047538 17.2449 0.0212986 17.1257 0.0187037C17.0066 0.0161097 16.8881 0.0372116 16.7772 0.080786C16.6663 0.124359 16.5652 0.189536 16.4797 0.272531L9.00056 7.33519L1.52325 0.272531Z" fill="white" fill-opacity="0.7"/>
</svg>
