<svg width="30" height="24" viewBox="0 0 30 24" fill="none" xmlns="http://www.w3.org/2000/svg">
<path d="M13.2439 16.3486C15.4948 13.0707 16.9346 9.74794 18.7351 6.25752C19.1786 5.39726 20.1381 3.50446 21.2354 3.47805C23.4002 3.42636 23.8058 5.69358 23.9126 7.39572C24.054 9.64112 23.6702 12.6733 24.2435 14.7785C25.0157 17.6166 27.8745 14.4593 28.9431 13.5381C29.3039 13.5301 29.567 14.4305 29.621 14.7234C30.053 17.0952 27.7458 19.1028 25.6844 19.7196C23.1198 20.4857 20.8757 19.4807 19.9014 16.9929C19.2763 15.3988 19.22 13.2487 19.4314 11.5603C19.4429 11.473 19.4222 11.496 19.3464 11.4983C18.7443 12.973 18.0698 14.4317 17.3287 15.8432C15.7258 18.8961 13.006 23.4673 9.25102 23.9485C3.04856 24.7422 3.36569 16.1568 4.75487 12.2966L4.07579 12.7468C2.82105 13.4692 0.690755 13.5657 0.371325 11.7809C0.346047 11.6373 0.286297 11.2652 0.366729 11.1664C2.52805 9.83867 4.19529 7.85859 5.50174 5.70507C6.17392 4.59673 6.71626 3.41258 7.36546 2.29275C8.07901 1.06037 8.88907 -0.383351 10.5575 0.0932943C12.6487 0.690536 11.9156 4.44053 11.61 6.00369C11.0217 9.01172 9.92894 11.9761 9.42567 14.991C9.23723 16.1189 8.85001 18.617 10.1496 19.205C10.816 19.5059 11.3744 18.7939 11.7616 18.3448C12.2925 17.7292 12.7854 17.0194 13.2462 16.3486H13.2439Z" fill="white"/>
</svg>
